<mxfile host="app.diagrams.net" modified="2020-12-23T19:50:10.794Z" agent="5.0 (Windows NT 10.0; Win64; x64) AppleWebKit/537.36 (KHTML, like Gecko) Chrome/87.0.4280.88 Safari/537.36" etag="vJbL0ez__ofG-3fEqM9C" version="14.1.1" type="github">
  <diagram id="6cOSNIeElhGFrdeFhDfk" name="Page-1">
    <mxGraphModel dx="1653" dy="643" grid="1" gridSize="10" guides="0" tooltips="1" connect="1" arrows="1" fold="1" page="1" pageScale="1" pageWidth="413" pageHeight="583" math="0" shadow="1">
      <root>
        <mxCell id="0" />
        <mxCell id="1" parent="0" />
        <mxCell id="xA2UetYVVYsu-TyS2bMy-2" value="STUDENTI" style="rounded=0;whiteSpace=wrap;html=1;" parent="1" vertex="1">
          <mxGeometry x="600" y="260" width="120" height="60" as="geometry" />
        </mxCell>
        <mxCell id="xA2UetYVVYsu-TyS2bMy-3" value="STUDIO" style="rhombus;whiteSpace=wrap;html=1;" parent="1" vertex="1">
          <mxGeometry x="390" y="390" width="80" height="60" as="geometry" />
        </mxCell>
        <mxCell id="xA2UetYVVYsu-TyS2bMy-6" value="NOME" style="ellipse;whiteSpace=wrap;html=1;" parent="1" vertex="1">
          <mxGeometry x="920" y="370" width="120" height="80" as="geometry" />
        </mxCell>
        <mxCell id="xA2UetYVVYsu-TyS2bMy-7" value="&lt;u&gt;NUM. MATRICOLA&lt;/u&gt;" style="ellipse;whiteSpace=wrap;html=1;" parent="1" vertex="1">
          <mxGeometry x="920" y="190" width="120" height="80" as="geometry" />
        </mxCell>
        <mxCell id="xA2UetYVVYsu-TyS2bMy-8" value="&lt;u&gt;SSN&lt;/u&gt;" style="ellipse;whiteSpace=wrap;html=1;" parent="1" vertex="1">
          <mxGeometry x="920" y="280" width="120" height="80" as="geometry" />
        </mxCell>
        <mxCell id="xA2UetYVVYsu-TyS2bMy-10" value="NUM. TELEFONO ATTUALE" style="ellipse;whiteSpace=wrap;html=1;direction=west;" parent="1" vertex="1">
          <mxGeometry x="920" y="560" width="120" height="80" as="geometry" />
        </mxCell>
        <mxCell id="xA2UetYVVYsu-TyS2bMy-11" value="INDIRIZZO ATTUALE" style="ellipse;whiteSpace=wrap;html=1;" parent="1" vertex="1">
          <mxGeometry x="790" y="560" width="120" height="80" as="geometry" />
        </mxCell>
        <mxCell id="xA2UetYVVYsu-TyS2bMy-12" value="INDIRIZZO RESIDENZA" style="ellipse;whiteSpace=wrap;html=1;" parent="1" vertex="1">
          <mxGeometry x="490" y="400" width="120" height="80" as="geometry" />
        </mxCell>
        <mxCell id="xA2UetYVVYsu-TyS2bMy-13" value="NUM. TEL RESIDENZA" style="ellipse;whiteSpace=wrap;html=1;" parent="1" vertex="1">
          <mxGeometry x="550" y="560" width="120" height="80" as="geometry" />
        </mxCell>
        <mxCell id="xA2UetYVVYsu-TyS2bMy-14" value="DATA DI NASCITA" style="ellipse;whiteSpace=wrap;html=1;" parent="1" vertex="1">
          <mxGeometry x="920" y="460" width="120" height="80" as="geometry" />
        </mxCell>
        <mxCell id="xA2UetYVVYsu-TyS2bMy-15" value="SESSO" style="ellipse;whiteSpace=wrap;html=1;" parent="1" vertex="1">
          <mxGeometry x="520" y="480" width="120" height="80" as="geometry" />
        </mxCell>
        <mxCell id="xA2UetYVVYsu-TyS2bMy-16" value="ANNO DI CORSO" style="ellipse;whiteSpace=wrap;html=1;" parent="1" vertex="1">
          <mxGeometry x="670" y="560" width="120" height="80" as="geometry" />
        </mxCell>
        <mxCell id="xA2UetYVVYsu-TyS2bMy-24" value="CITTA&#39;" style="ellipse;whiteSpace=wrap;html=1;" parent="1" vertex="1">
          <mxGeometry x="930" y="90" width="120" height="80" as="geometry" />
        </mxCell>
        <mxCell id="xA2UetYVVYsu-TyS2bMy-25" value="STATO" style="ellipse;whiteSpace=wrap;html=1;" parent="1" vertex="1">
          <mxGeometry x="690" width="120" height="80" as="geometry" />
        </mxCell>
        <mxCell id="xA2UetYVVYsu-TyS2bMy-26" value="CAP" style="ellipse;whiteSpace=wrap;html=1;" parent="1" vertex="1">
          <mxGeometry x="810" width="120" height="80" as="geometry" />
        </mxCell>
        <mxCell id="xA2UetYVVYsu-TyS2bMy-27" value="COGNOME" style="ellipse;whiteSpace=wrap;html=1;" parent="1" vertex="1">
          <mxGeometry x="930" width="120" height="80" as="geometry" />
        </mxCell>
        <mxCell id="xA2UetYVVYsu-TyS2bMy-28" value="" style="endArrow=none;html=1;entryX=1;entryY=0.75;entryDx=0;entryDy=0;" parent="1" source="xA2UetYVVYsu-TyS2bMy-8" target="xA2UetYVVYsu-TyS2bMy-2" edge="1">
          <mxGeometry width="50" height="50" relative="1" as="geometry">
            <mxPoint x="390" y="310" as="sourcePoint" />
            <mxPoint x="440" y="260" as="targetPoint" />
          </mxGeometry>
        </mxCell>
        <mxCell id="xA2UetYVVYsu-TyS2bMy-29" value="" style="endArrow=none;html=1;exitX=1;exitY=0;exitDx=0;exitDy=0;" parent="1" source="xA2UetYVVYsu-TyS2bMy-2" target="xA2UetYVVYsu-TyS2bMy-7" edge="1">
          <mxGeometry width="50" height="50" relative="1" as="geometry">
            <mxPoint x="390" y="310" as="sourcePoint" />
            <mxPoint x="440" y="260" as="targetPoint" />
          </mxGeometry>
        </mxCell>
        <mxCell id="xA2UetYVVYsu-TyS2bMy-30" value="" style="endArrow=none;html=1;exitX=0.25;exitY=0;exitDx=0;exitDy=0;entryX=0.5;entryY=1;entryDx=0;entryDy=0;" parent="1" source="xA2UetYVVYsu-TyS2bMy-2" target="xA2UetYVVYsu-TyS2bMy-25" edge="1">
          <mxGeometry width="50" height="50" relative="1" as="geometry">
            <mxPoint x="547" y="192.01999999999998" as="sourcePoint" />
            <mxPoint x="530" y="120" as="targetPoint" />
          </mxGeometry>
        </mxCell>
        <mxCell id="xA2UetYVVYsu-TyS2bMy-31" value="" style="endArrow=none;html=1;entryX=0.408;entryY=0;entryDx=0;entryDy=0;entryPerimeter=0;" parent="1" source="xA2UetYVVYsu-TyS2bMy-26" target="xA2UetYVVYsu-TyS2bMy-2" edge="1">
          <mxGeometry width="50" height="50" relative="1" as="geometry">
            <mxPoint x="390" y="210" as="sourcePoint" />
            <mxPoint x="556.96" y="168.01999999999998" as="targetPoint" />
          </mxGeometry>
        </mxCell>
        <mxCell id="xA2UetYVVYsu-TyS2bMy-32" value="" style="endArrow=none;html=1;exitX=0.017;exitY=0.3;exitDx=0;exitDy=0;exitPerimeter=0;entryX=0.75;entryY=0;entryDx=0;entryDy=0;" parent="1" source="xA2UetYVVYsu-TyS2bMy-24" target="xA2UetYVVYsu-TyS2bMy-2" edge="1">
          <mxGeometry width="50" height="50" relative="1" as="geometry">
            <mxPoint x="390" y="210" as="sourcePoint" />
            <mxPoint x="670" y="200" as="targetPoint" />
          </mxGeometry>
        </mxCell>
        <mxCell id="xA2UetYVVYsu-TyS2bMy-33" value="" style="endArrow=none;html=1;entryX=0;entryY=1;entryDx=0;entryDy=0;exitX=0.5;exitY=0;exitDx=0;exitDy=0;" parent="1" source="xA2UetYVVYsu-TyS2bMy-2" target="xA2UetYVVYsu-TyS2bMy-27" edge="1">
          <mxGeometry width="50" height="50" relative="1" as="geometry">
            <mxPoint x="640" y="170" as="sourcePoint" />
            <mxPoint x="440" y="160" as="targetPoint" />
          </mxGeometry>
        </mxCell>
        <mxCell id="xA2UetYVVYsu-TyS2bMy-34" value="&lt;u&gt;NOM. DIP&lt;/u&gt;" style="ellipse;whiteSpace=wrap;html=1;" parent="1" vertex="1">
          <mxGeometry x="340" width="120" height="80" as="geometry" />
        </mxCell>
        <mxCell id="xA2UetYVVYsu-TyS2bMy-35" value="DIP. INS" style="ellipse;whiteSpace=wrap;html=1;" parent="1" vertex="1">
          <mxGeometry x="125" y="580" width="120" height="80" as="geometry" />
        </mxCell>
        <mxCell id="xA2UetYVVYsu-TyS2bMy-36" value="TEL EDIFICIO" style="ellipse;whiteSpace=wrap;html=1;" parent="1" vertex="1">
          <mxGeometry x="-50" width="120" height="80" as="geometry" />
        </mxCell>
        <mxCell id="xA2UetYVVYsu-TyS2bMy-37" value="TEL UFFICIO" style="ellipse;whiteSpace=wrap;html=1;" parent="1" vertex="1">
          <mxGeometry x="80" width="120" height="80" as="geometry" />
        </mxCell>
        <mxCell id="xA2UetYVVYsu-TyS2bMy-38" value="NUM. UFFICIO" style="ellipse;whiteSpace=wrap;html=1;" parent="1" vertex="1">
          <mxGeometry x="210" width="120" height="80" as="geometry" />
        </mxCell>
        <mxCell id="xA2UetYVVYsu-TyS2bMy-39" value="&lt;u&gt;COD. DIP&lt;/u&gt;" style="ellipse;whiteSpace=wrap;html=1;" parent="1" vertex="1">
          <mxGeometry x="470" width="120" height="80" as="geometry" />
        </mxCell>
        <mxCell id="xA2UetYVVYsu-TyS2bMy-40" value="" style="endArrow=none;html=1;" parent="1" source="xA2UetYVVYsu-TyS2bMy-39" target="xA2UetYVVYsu-TyS2bMy-58" edge="1">
          <mxGeometry width="50" height="50" relative="1" as="geometry">
            <mxPoint x="400" y="310" as="sourcePoint" />
            <mxPoint x="450" y="260" as="targetPoint" />
          </mxGeometry>
        </mxCell>
        <mxCell id="xA2UetYVVYsu-TyS2bMy-41" value="" style="endArrow=none;html=1;exitX=0.408;exitY=1.025;exitDx=0;exitDy=0;exitPerimeter=0;" parent="1" source="xA2UetYVVYsu-TyS2bMy-34" target="xA2UetYVVYsu-TyS2bMy-58" edge="1">
          <mxGeometry width="50" height="50" relative="1" as="geometry">
            <mxPoint x="220" y="530" as="sourcePoint" />
            <mxPoint x="450" y="260" as="targetPoint" />
          </mxGeometry>
        </mxCell>
        <mxCell id="xA2UetYVVYsu-TyS2bMy-42" value="" style="endArrow=none;html=1;exitX=1;exitY=1;exitDx=0;exitDy=0;" parent="1" source="xA2UetYVVYsu-TyS2bMy-36" target="xA2UetYVVYsu-TyS2bMy-58" edge="1">
          <mxGeometry width="50" height="50" relative="1" as="geometry">
            <mxPoint x="400" y="310" as="sourcePoint" />
            <mxPoint x="450" y="260" as="targetPoint" />
          </mxGeometry>
        </mxCell>
        <mxCell id="xA2UetYVVYsu-TyS2bMy-43" value="" style="endArrow=none;html=1;exitX=0.583;exitY=1.033;exitDx=0;exitDy=0;exitPerimeter=0;" parent="1" source="xA2UetYVVYsu-TyS2bMy-58" target="xA2UetYVVYsu-TyS2bMy-38" edge="1">
          <mxGeometry width="50" height="50" relative="1" as="geometry">
            <mxPoint x="400" y="310" as="sourcePoint" />
            <mxPoint x="450" y="260" as="targetPoint" />
          </mxGeometry>
        </mxCell>
        <mxCell id="xA2UetYVVYsu-TyS2bMy-44" value="" style="endArrow=none;html=1;" parent="1" source="xA2UetYVVYsu-TyS2bMy-58" target="xA2UetYVVYsu-TyS2bMy-37" edge="1">
          <mxGeometry width="50" height="50" relative="1" as="geometry">
            <mxPoint x="400" y="310" as="sourcePoint" />
            <mxPoint x="450" y="260" as="targetPoint" />
          </mxGeometry>
        </mxCell>
        <mxCell id="xA2UetYVVYsu-TyS2bMy-48" value="" style="endArrow=none;html=1;exitX=1;exitY=1;exitDx=0;exitDy=0;entryX=0;entryY=0;entryDx=0;entryDy=0;" parent="1" source="xA2UetYVVYsu-TyS2bMy-2" target="xA2UetYVVYsu-TyS2bMy-6" edge="1">
          <mxGeometry width="50" height="50" relative="1" as="geometry">
            <mxPoint x="400" y="510" as="sourcePoint" />
            <mxPoint x="450" y="460" as="targetPoint" />
          </mxGeometry>
        </mxCell>
        <mxCell id="xA2UetYVVYsu-TyS2bMy-49" value="" style="endArrow=none;html=1;entryX=0.25;entryY=1;entryDx=0;entryDy=0;exitX=1;exitY=0;exitDx=0;exitDy=0;" parent="1" source="xA2UetYVVYsu-TyS2bMy-15" target="xA2UetYVVYsu-TyS2bMy-2" edge="1">
          <mxGeometry width="50" height="50" relative="1" as="geometry">
            <mxPoint x="400" y="510" as="sourcePoint" />
            <mxPoint x="450" y="460" as="targetPoint" />
          </mxGeometry>
        </mxCell>
        <mxCell id="xA2UetYVVYsu-TyS2bMy-50" value="" style="endArrow=none;html=1;entryX=0;entryY=1;entryDx=0;entryDy=0;" parent="1" source="xA2UetYVVYsu-TyS2bMy-12" target="xA2UetYVVYsu-TyS2bMy-2" edge="1">
          <mxGeometry width="50" height="50" relative="1" as="geometry">
            <mxPoint x="400" y="510" as="sourcePoint" />
            <mxPoint x="450" y="460" as="targetPoint" />
          </mxGeometry>
        </mxCell>
        <mxCell id="xA2UetYVVYsu-TyS2bMy-51" value="" style="endArrow=none;html=1;exitX=0.915;exitY=0.998;exitDx=0;exitDy=0;entryX=0;entryY=0;entryDx=0;entryDy=0;exitPerimeter=0;" parent="1" source="xA2UetYVVYsu-TyS2bMy-2" target="xA2UetYVVYsu-TyS2bMy-14" edge="1">
          <mxGeometry width="50" height="50" relative="1" as="geometry">
            <mxPoint x="400" y="510" as="sourcePoint" />
            <mxPoint x="450" y="460" as="targetPoint" />
          </mxGeometry>
        </mxCell>
        <mxCell id="xA2UetYVVYsu-TyS2bMy-52" value="" style="endArrow=none;html=1;entryX=0.25;entryY=1;entryDx=0;entryDy=0;exitX=1;exitY=0;exitDx=0;exitDy=0;" parent="1" source="xA2UetYVVYsu-TyS2bMy-13" target="xA2UetYVVYsu-TyS2bMy-2" edge="1">
          <mxGeometry width="50" height="50" relative="1" as="geometry">
            <mxPoint x="400" y="510" as="sourcePoint" />
            <mxPoint x="450" y="460" as="targetPoint" />
          </mxGeometry>
        </mxCell>
        <mxCell id="xA2UetYVVYsu-TyS2bMy-53" value="" style="endArrow=none;html=1;entryX=0.5;entryY=1;entryDx=0;entryDy=0;exitX=0.5;exitY=0;exitDx=0;exitDy=0;" parent="1" source="xA2UetYVVYsu-TyS2bMy-16" target="xA2UetYVVYsu-TyS2bMy-2" edge="1">
          <mxGeometry width="50" height="50" relative="1" as="geometry">
            <mxPoint x="400" y="510" as="sourcePoint" />
            <mxPoint x="450" y="460" as="targetPoint" />
          </mxGeometry>
        </mxCell>
        <mxCell id="xA2UetYVVYsu-TyS2bMy-54" value="" style="endArrow=none;html=1;" parent="1" source="xA2UetYVVYsu-TyS2bMy-10" target="xA2UetYVVYsu-TyS2bMy-2" edge="1">
          <mxGeometry width="50" height="50" relative="1" as="geometry">
            <mxPoint x="400" y="510" as="sourcePoint" />
            <mxPoint x="450" y="460" as="targetPoint" />
          </mxGeometry>
        </mxCell>
        <mxCell id="xA2UetYVVYsu-TyS2bMy-56" value="" style="endArrow=none;html=1;entryX=0.75;entryY=1;entryDx=0;entryDy=0;exitX=0;exitY=0;exitDx=0;exitDy=0;" parent="1" source="xA2UetYVVYsu-TyS2bMy-11" target="xA2UetYVVYsu-TyS2bMy-2" edge="1">
          <mxGeometry width="50" height="50" relative="1" as="geometry">
            <mxPoint x="400" y="510" as="sourcePoint" />
            <mxPoint x="450" y="460" as="targetPoint" />
          </mxGeometry>
        </mxCell>
        <mxCell id="xA2UetYVVYsu-TyS2bMy-61" value="INSEGNAMENTO" style="rounded=1;whiteSpace=wrap;html=1;" parent="1" vertex="1">
          <mxGeometry x="100" y="340" width="120" height="60" as="geometry" />
        </mxCell>
        <mxCell id="xA2UetYVVYsu-TyS2bMy-62" value="" style="endArrow=none;html=1;" parent="1" target="xA2UetYVVYsu-TyS2bMy-150" edge="1">
          <mxGeometry width="50" height="50" relative="1" as="geometry">
            <mxPoint x="160" y="340" as="sourcePoint" />
            <mxPoint x="160" y="320" as="targetPoint" />
          </mxGeometry>
        </mxCell>
        <mxCell id="xA2UetYVVYsu-TyS2bMy-63" value="NUM CREDITI" style="ellipse;whiteSpace=wrap;html=1;" parent="1" vertex="1">
          <mxGeometry y="580" width="120" height="80" as="geometry" />
        </mxCell>
        <mxCell id="xA2UetYVVYsu-TyS2bMy-65" value="DESCRIZIONE" style="ellipse;whiteSpace=wrap;html=1;" parent="1" vertex="1">
          <mxGeometry x="250" y="480" width="120" height="80" as="geometry" />
        </mxCell>
        <mxCell id="xA2UetYVVYsu-TyS2bMy-66" value="NOME" style="ellipse;whiteSpace=wrap;html=1;" parent="1" vertex="1">
          <mxGeometry x="245" y="580" width="120" height="80" as="geometry" />
        </mxCell>
        <mxCell id="xA2UetYVVYsu-TyS2bMy-70" value="" style="endArrow=none;html=1;exitX=0.3;exitY=0.013;exitDx=0;exitDy=0;entryX=0.883;entryY=0.983;entryDx=0;entryDy=0;entryPerimeter=0;exitPerimeter=0;" parent="1" source="xA2UetYVVYsu-TyS2bMy-65" target="xA2UetYVVYsu-TyS2bMy-61" edge="1">
          <mxGeometry width="50" height="50" relative="1" as="geometry">
            <mxPoint x="400" y="90" as="sourcePoint" />
            <mxPoint x="450" y="40" as="targetPoint" />
          </mxGeometry>
        </mxCell>
        <mxCell id="xA2UetYVVYsu-TyS2bMy-72" value="" style="endArrow=none;html=1;entryX=0;entryY=0.5;entryDx=0;entryDy=0;" parent="1" source="xA2UetYVVYsu-TyS2bMy-67" target="xA2UetYVVYsu-TyS2bMy-61" edge="1">
          <mxGeometry width="50" height="50" relative="1" as="geometry">
            <mxPoint x="400" y="90" as="sourcePoint" />
            <mxPoint x="450" y="40" as="targetPoint" />
          </mxGeometry>
        </mxCell>
        <mxCell id="xA2UetYVVYsu-TyS2bMy-73" value="" style="endArrow=none;html=1;" parent="1" source="xA2UetYVVYsu-TyS2bMy-35" target="xA2UetYVVYsu-TyS2bMy-61" edge="1">
          <mxGeometry width="50" height="50" relative="1" as="geometry">
            <mxPoint x="400" y="90" as="sourcePoint" />
            <mxPoint x="450" y="40" as="targetPoint" />
          </mxGeometry>
        </mxCell>
        <mxCell id="xA2UetYVVYsu-TyS2bMy-74" value="MODULO" style="rounded=1;whiteSpace=wrap;html=1;" parent="1" vertex="1">
          <mxGeometry x="310" y="290" width="120" height="60" as="geometry" />
        </mxCell>
        <mxCell id="xA2UetYVVYsu-TyS2bMy-75" value="" style="endArrow=none;html=1;entryX=0;entryY=0.75;entryDx=0;entryDy=0;exitX=1;exitY=0.5;exitDx=0;exitDy=0;" parent="1" source="xA2UetYVVYsu-TyS2bMy-3" target="xA2UetYVVYsu-TyS2bMy-2" edge="1">
          <mxGeometry width="50" height="50" relative="1" as="geometry">
            <mxPoint x="290" y="310" as="sourcePoint" />
            <mxPoint x="450" y="480" as="targetPoint" />
          </mxGeometry>
        </mxCell>
        <mxCell id="xA2UetYVVYsu-TyS2bMy-76" value="VOTO CIFRE" style="ellipse;whiteSpace=wrap;html=1;" parent="1" vertex="1">
          <mxGeometry x="530" y="770" width="120" height="80" as="geometry" />
        </mxCell>
        <mxCell id="xA2UetYVVYsu-TyS2bMy-77" value="CODICE MOD" style="ellipse;whiteSpace=wrap;html=1;" parent="1" vertex="1">
          <mxGeometry x="400" y="670" width="120" height="80" as="geometry" />
        </mxCell>
        <mxCell id="xA2UetYVVYsu-TyS2bMy-79" value="ANNO" style="ellipse;whiteSpace=wrap;html=1;" parent="1" vertex="1">
          <mxGeometry x="400" y="770" width="120" height="80" as="geometry" />
        </mxCell>
        <mxCell id="xA2UetYVVYsu-TyS2bMy-81" value="DOCENTE" style="ellipse;whiteSpace=wrap;html=1;" parent="1" vertex="1">
          <mxGeometry x="250" y="670" width="120" height="80" as="geometry" />
        </mxCell>
        <mxCell id="xA2UetYVVYsu-TyS2bMy-83" value="" style="endArrow=none;html=1;exitX=0.958;exitY=0.325;exitDx=0;exitDy=0;exitPerimeter=0;" parent="1" source="xA2UetYVVYsu-TyS2bMy-81" target="xA2UetYVVYsu-TyS2bMy-74" edge="1">
          <mxGeometry width="50" height="50" relative="1" as="geometry">
            <mxPoint x="400" y="730" as="sourcePoint" />
            <mxPoint x="450" y="680" as="targetPoint" />
          </mxGeometry>
        </mxCell>
        <mxCell id="xA2UetYVVYsu-TyS2bMy-84" value="SEMESTRE" style="ellipse;whiteSpace=wrap;html=1;" parent="1" vertex="1">
          <mxGeometry x="250" y="770" width="120" height="80" as="geometry" />
        </mxCell>
        <mxCell id="xA2UetYVVYsu-TyS2bMy-85" value="" style="endArrow=none;html=1;exitX=0.5;exitY=1;exitDx=0;exitDy=0;entryX=0;entryY=0;entryDx=0;entryDy=0;" parent="1" source="xA2UetYVVYsu-TyS2bMy-74" target="xA2UetYVVYsu-TyS2bMy-77" edge="1">
          <mxGeometry width="50" height="50" relative="1" as="geometry">
            <mxPoint x="400" y="730" as="sourcePoint" />
            <mxPoint x="450" y="680" as="targetPoint" />
          </mxGeometry>
        </mxCell>
        <mxCell id="xA2UetYVVYsu-TyS2bMy-87" value="" style="endArrow=none;html=1;exitX=0.5;exitY=0;exitDx=0;exitDy=0;" parent="1" source="xA2UetYVVYsu-TyS2bMy-84" target="xA2UetYVVYsu-TyS2bMy-77" edge="1">
          <mxGeometry width="50" height="50" relative="1" as="geometry">
            <mxPoint x="400" y="730" as="sourcePoint" />
            <mxPoint x="399.96000000000004" y="820" as="targetPoint" />
          </mxGeometry>
        </mxCell>
        <mxCell id="xA2UetYVVYsu-TyS2bMy-88" value="" style="endArrow=none;html=1;exitX=0.708;exitY=0.95;exitDx=0;exitDy=0;exitPerimeter=0;" parent="1" source="xA2UetYVVYsu-TyS2bMy-77" target="xA2UetYVVYsu-TyS2bMy-79" edge="1">
          <mxGeometry width="50" height="50" relative="1" as="geometry">
            <mxPoint x="500.03999999999996" y="824" as="sourcePoint" />
            <mxPoint x="450" y="680" as="targetPoint" />
          </mxGeometry>
        </mxCell>
        <mxCell id="xA2UetYVVYsu-TyS2bMy-58" value="DIPARTIMENTO" style="rounded=1;whiteSpace=wrap;html=1;" parent="1" vertex="1">
          <mxGeometry x="100" y="180" width="120" height="60" as="geometry" />
        </mxCell>
        <mxCell id="xA2UetYVVYsu-TyS2bMy-90" value="" style="endArrow=none;html=1;exitX=0.5;exitY=0;exitDx=0;exitDy=0;" parent="1" edge="1">
          <mxGeometry width="50" height="50" relative="1" as="geometry">
            <mxPoint x="160" y="260" as="sourcePoint" />
            <mxPoint x="160" y="240" as="targetPoint" />
          </mxGeometry>
        </mxCell>
        <mxCell id="xA2UetYVVYsu-TyS2bMy-94" value="VOTO LETTERE" style="ellipse;whiteSpace=wrap;html=1;" parent="1" vertex="1">
          <mxGeometry x="660" y="770" width="120" height="80" as="geometry" />
        </mxCell>
        <mxCell id="xA2UetYVVYsu-TyS2bMy-99" value="" style="endArrow=none;html=1;exitX=0.5;exitY=1;exitDx=0;exitDy=0;entryX=1;entryY=0;entryDx=0;entryDy=0;" parent="1" source="D-_GAInktsQL2HOhlUDF-5" target="xA2UetYVVYsu-TyS2bMy-76" edge="1">
          <mxGeometry width="50" height="50" relative="1" as="geometry">
            <mxPoint x="610" y="750" as="sourcePoint" />
            <mxPoint x="450" y="880" as="targetPoint" />
          </mxGeometry>
        </mxCell>
        <mxCell id="xA2UetYVVYsu-TyS2bMy-100" value="" style="endArrow=none;html=1;exitX=0.5;exitY=1;exitDx=0;exitDy=0;entryX=0;entryY=0;entryDx=0;entryDy=0;" parent="1" source="D-_GAInktsQL2HOhlUDF-5" target="xA2UetYVVYsu-TyS2bMy-94" edge="1">
          <mxGeometry width="50" height="50" relative="1" as="geometry">
            <mxPoint x="610" y="750" as="sourcePoint" />
            <mxPoint x="450" y="880" as="targetPoint" />
          </mxGeometry>
        </mxCell>
        <mxCell id="xA2UetYVVYsu-TyS2bMy-121" value="DIP SPE" style="rhombus;whiteSpace=wrap;html=1;" parent="1" vertex="1">
          <mxGeometry x="330" y="220" width="80" height="60" as="geometry" />
        </mxCell>
        <mxCell id="xA2UetYVVYsu-TyS2bMy-122" value="" style="endArrow=classic;startArrow=classic;html=1;entryX=1;entryY=0.5;entryDx=0;entryDy=0;exitX=0;exitY=0;exitDx=0;exitDy=0;" parent="1" source="xA2UetYVVYsu-TyS2bMy-2" target="xA2UetYVVYsu-TyS2bMy-121" edge="1">
          <mxGeometry width="50" height="50" relative="1" as="geometry">
            <mxPoint x="420" y="330" as="sourcePoint" />
            <mxPoint x="470" y="280" as="targetPoint" />
          </mxGeometry>
        </mxCell>
        <mxCell id="xA2UetYVVYsu-TyS2bMy-123" value="" style="endArrow=classic;startArrow=classic;html=1;exitX=0.992;exitY=0.383;exitDx=0;exitDy=0;exitPerimeter=0;" parent="1" source="xA2UetYVVYsu-TyS2bMy-58" target="xA2UetYVVYsu-TyS2bMy-121" edge="1">
          <mxGeometry width="50" height="50" relative="1" as="geometry">
            <mxPoint x="420" y="330" as="sourcePoint" />
            <mxPoint x="470" y="280" as="targetPoint" />
          </mxGeometry>
        </mxCell>
        <mxCell id="xA2UetYVVYsu-TyS2bMy-131" value="DIP PRI" style="rhombus;whiteSpace=wrap;html=1;" parent="1" vertex="1">
          <mxGeometry x="330" y="160" width="80" height="60" as="geometry" />
        </mxCell>
        <mxCell id="xA2UetYVVYsu-TyS2bMy-132" value="" style="endArrow=classic;startArrow=classic;html=1;entryX=0.133;entryY=-0.017;entryDx=0;entryDy=0;entryPerimeter=0;exitX=1;exitY=0.5;exitDx=0;exitDy=0;" parent="1" source="xA2UetYVVYsu-TyS2bMy-131" target="xA2UetYVVYsu-TyS2bMy-2" edge="1">
          <mxGeometry width="50" height="50" relative="1" as="geometry">
            <mxPoint x="380" y="220" as="sourcePoint" />
            <mxPoint x="430" y="170" as="targetPoint" />
          </mxGeometry>
        </mxCell>
        <mxCell id="xA2UetYVVYsu-TyS2bMy-133" value="" style="endArrow=classic;startArrow=classic;html=1;exitX=1;exitY=0.25;exitDx=0;exitDy=0;entryX=0;entryY=0.5;entryDx=0;entryDy=0;" parent="1" source="xA2UetYVVYsu-TyS2bMy-58" target="xA2UetYVVYsu-TyS2bMy-131" edge="1">
          <mxGeometry width="50" height="50" relative="1" as="geometry">
            <mxPoint x="380" y="220" as="sourcePoint" />
            <mxPoint x="430" y="170" as="targetPoint" />
          </mxGeometry>
        </mxCell>
        <mxCell id="xA2UetYVVYsu-TyS2bMy-135" value="(0,N)" style="text;html=1;strokeColor=none;fillColor=none;align=center;verticalAlign=middle;whiteSpace=wrap;rounded=0;rotation=-40;" parent="1" vertex="1">
          <mxGeometry x="480" y="360" width="40" height="20" as="geometry" />
        </mxCell>
        <mxCell id="xA2UetYVVYsu-TyS2bMy-138" value="(1,1)" style="text;html=1;strokeColor=none;fillColor=none;align=center;verticalAlign=middle;whiteSpace=wrap;rounded=0;rotation=0;" parent="1" vertex="1">
          <mxGeometry x="290" y="170" width="30" height="20" as="geometry" />
        </mxCell>
        <mxCell id="xA2UetYVVYsu-TyS2bMy-139" value="(0,N)" style="text;html=1;strokeColor=none;fillColor=none;align=center;verticalAlign=middle;whiteSpace=wrap;rounded=0;rotation=15;" parent="1" vertex="1">
          <mxGeometry x="430" y="230" width="40" height="20" as="geometry" />
        </mxCell>
        <mxCell id="xA2UetYVVYsu-TyS2bMy-140" value="(0,1)" style="text;html=1;strokeColor=none;fillColor=none;align=center;verticalAlign=middle;whiteSpace=wrap;rounded=0;rotation=15;" parent="1" vertex="1">
          <mxGeometry x="280" y="210" width="40" height="20" as="geometry" />
        </mxCell>
        <mxCell id="xA2UetYVVYsu-TyS2bMy-141" value="(0,N)" style="text;html=1;strokeColor=none;fillColor=none;align=center;verticalAlign=middle;whiteSpace=wrap;rounded=0;rotation=20;" parent="1" vertex="1">
          <mxGeometry x="460" y="190" width="40" height="30" as="geometry" />
        </mxCell>
        <mxCell id="xA2UetYVVYsu-TyS2bMy-148" value="" style="endArrow=none;html=1;exitX=1;exitY=0.25;exitDx=0;exitDy=0;" parent="1" source="xA2UetYVVYsu-TyS2bMy-74" target="xA2UetYVVYsu-TyS2bMy-3" edge="1">
          <mxGeometry width="50" height="50" relative="1" as="geometry">
            <mxPoint x="380" y="340" as="sourcePoint" />
            <mxPoint x="430" y="290" as="targetPoint" />
          </mxGeometry>
        </mxCell>
        <mxCell id="xA2UetYVVYsu-TyS2bMy-149" value="(0,N)" style="text;html=1;strokeColor=none;fillColor=none;align=center;verticalAlign=middle;whiteSpace=wrap;rounded=0;rotation=0;" parent="1" vertex="1">
          <mxGeometry x="430" y="360" width="40" height="20" as="geometry" />
        </mxCell>
        <mxCell id="xA2UetYVVYsu-TyS2bMy-150" value="DIDATTICA" style="rhombus;whiteSpace=wrap;html=1;" parent="1" vertex="1">
          <mxGeometry x="120" y="260" width="80" height="60" as="geometry" />
        </mxCell>
        <mxCell id="xA2UetYVVYsu-TyS2bMy-151" value="TIPO" style="rhombus;whiteSpace=wrap;html=1;" parent="1" vertex="1">
          <mxGeometry x="230" y="360" width="80" height="60" as="geometry" />
        </mxCell>
        <mxCell id="xA2UetYVVYsu-TyS2bMy-152" value="" style="endArrow=none;html=1;exitX=1;exitY=0.5;exitDx=0;exitDy=0;entryX=0;entryY=0.75;entryDx=0;entryDy=0;" parent="1" source="xA2UetYVVYsu-TyS2bMy-151" target="xA2UetYVVYsu-TyS2bMy-74" edge="1">
          <mxGeometry width="50" height="50" relative="1" as="geometry">
            <mxPoint x="380" y="240" as="sourcePoint" />
            <mxPoint x="430" y="190" as="targetPoint" />
          </mxGeometry>
        </mxCell>
        <mxCell id="xA2UetYVVYsu-TyS2bMy-153" value="" style="endArrow=none;html=1;exitX=1;exitY=0.25;exitDx=0;exitDy=0;" parent="1" source="xA2UetYVVYsu-TyS2bMy-61" target="xA2UetYVVYsu-TyS2bMy-151" edge="1">
          <mxGeometry width="50" height="50" relative="1" as="geometry">
            <mxPoint x="380" y="240" as="sourcePoint" />
            <mxPoint x="430" y="190" as="targetPoint" />
          </mxGeometry>
        </mxCell>
        <mxCell id="xA2UetYVVYsu-TyS2bMy-154" value="(1,1)" style="text;html=1;strokeColor=none;fillColor=none;align=center;verticalAlign=middle;whiteSpace=wrap;rounded=0;rotation=-90;" parent="1" vertex="1">
          <mxGeometry x="280" y="350" width="40" height="20" as="geometry" />
        </mxCell>
        <mxCell id="xA2UetYVVYsu-TyS2bMy-155" value="(0,N)" style="text;html=1;strokeColor=none;fillColor=none;align=center;verticalAlign=middle;whiteSpace=wrap;rounded=0;rotation=30;" parent="1" vertex="1">
          <mxGeometry x="220" y="340" width="40" height="20" as="geometry" />
        </mxCell>
        <mxCell id="xA2UetYVVYsu-TyS2bMy-64" value="&lt;u&gt;CODICE&lt;/u&gt;" style="ellipse;whiteSpace=wrap;html=1;" parent="1" vertex="1">
          <mxGeometry x="120" y="480" width="120" height="80" as="geometry" />
        </mxCell>
        <mxCell id="xA2UetYVVYsu-TyS2bMy-156" value="" style="endArrow=none;html=1;" parent="1" source="xA2UetYVVYsu-TyS2bMy-66" target="xA2UetYVVYsu-TyS2bMy-64" edge="1">
          <mxGeometry width="50" height="50" relative="1" as="geometry">
            <mxPoint x="191.82689957127354" y="520.3728464061751" as="sourcePoint" />
            <mxPoint x="166.31578947368416" y="400" as="targetPoint" />
          </mxGeometry>
        </mxCell>
        <mxCell id="xA2UetYVVYsu-TyS2bMy-157" value="(0,N)" style="text;html=1;strokeColor=none;fillColor=none;align=center;verticalAlign=middle;whiteSpace=wrap;rounded=0;rotation=0;" parent="1" vertex="1">
          <mxGeometry x="160" y="240" width="40" height="30" as="geometry" />
        </mxCell>
        <mxCell id="xA2UetYVVYsu-TyS2bMy-158" value="(1,1)" style="text;html=1;strokeColor=none;fillColor=none;align=center;verticalAlign=middle;whiteSpace=wrap;rounded=0;rotation=0;" parent="1" vertex="1">
          <mxGeometry x="160" y="310" width="40" height="30" as="geometry" />
        </mxCell>
        <mxCell id="xA2UetYVVYsu-TyS2bMy-67" value="LIVELLO" style="ellipse;whiteSpace=wrap;html=1;" parent="1" vertex="1">
          <mxGeometry x="-10" y="480" width="120" height="80" as="geometry" />
        </mxCell>
        <mxCell id="jPnBLT1MtGYZB3a7r9yV-1" value="" style="endArrow=none;html=1;exitX=0.075;exitY=0.163;exitDx=0;exitDy=0;exitPerimeter=0;" parent="1" source="xA2UetYVVYsu-TyS2bMy-63" target="xA2UetYVVYsu-TyS2bMy-67" edge="1">
          <mxGeometry width="50" height="50" relative="1" as="geometry">
            <mxPoint x="9" y="593.04" as="sourcePoint" />
            <mxPoint x="220" y="390" as="targetPoint" />
          </mxGeometry>
        </mxCell>
        <mxCell id="D-_GAInktsQL2HOhlUDF-1" value="CORSO DI STUDI" style="ellipse;whiteSpace=wrap;html=1;" vertex="1" parent="1">
          <mxGeometry x="580" width="120" height="80" as="geometry" />
        </mxCell>
        <mxCell id="D-_GAInktsQL2HOhlUDF-2" value="" style="endArrow=none;html=1;entryX=0.25;entryY=0;entryDx=0;entryDy=0;exitX=0.5;exitY=1;exitDx=0;exitDy=0;" edge="1" parent="1" source="D-_GAInktsQL2HOhlUDF-1" target="xA2UetYVVYsu-TyS2bMy-2">
          <mxGeometry width="50" height="50" relative="1" as="geometry">
            <mxPoint x="450" y="490" as="sourcePoint" />
            <mxPoint x="500" y="440" as="targetPoint" />
          </mxGeometry>
        </mxCell>
        <mxCell id="D-_GAInktsQL2HOhlUDF-4" value="" style="endArrow=none;html=1;entryX=0.5;entryY=1;entryDx=0;entryDy=0;" edge="1" parent="1" target="xA2UetYVVYsu-TyS2bMy-3">
          <mxGeometry width="50" height="50" relative="1" as="geometry">
            <mxPoint x="560" y="680" as="sourcePoint" />
            <mxPoint x="500" y="570" as="targetPoint" />
          </mxGeometry>
        </mxCell>
        <mxCell id="D-_GAInktsQL2HOhlUDF-5" value="VOTAZIONE" style="rounded=0;whiteSpace=wrap;html=1;" vertex="1" parent="1">
          <mxGeometry x="550" y="680" width="120" height="60" as="geometry" />
        </mxCell>
        <mxCell id="D-_GAInktsQL2HOhlUDF-6" value="(0,N)" style="text;html=1;strokeColor=none;fillColor=none;align=center;verticalAlign=middle;whiteSpace=wrap;rounded=0;rotation=60;" vertex="1" parent="1">
          <mxGeometry x="470" y="520" width="40" height="20" as="geometry" />
        </mxCell>
      </root>
    </mxGraphModel>
  </diagram>
</mxfile>
